<svg xmlns="http://www.w3.org/2000/svg" width="512" height="512" viewBox="6 6 20 20">
	<desc>ueckoken logo square</desc>
	<defs>
		<path id="bg" d="M6,6v20h20v-20z"/>
		<path
			id="main"
			fill="none"
			stroke-linecap="round"
			stroke-linejoin="round"
			d="
			M6,6
			m-2,7l11-2.75
			m-3,.75v5
			m-4,1l11-2.75m1-.25l4-1
			m-4,4l8-2
			m-11,5.75l2-.5v-3l-2,.5v4.25
			m6-8.75v14.75
		
			M6,6m5,10m5.875-1.219a6,6,0,0,1-1.875,5.691
			M6,6m5,10m9.757-2.189a10,10,0,0,1-1.097,7.189
			"
		/>
	</defs>

	<a href="#"  transform="translate( 0, 0)"><use href="#bg" fill="#fff"/><use href="#main" stroke="#f12"/></a>
	<view id="!" viewBox="38 6 20 20"/>
	<a href="#!" transform="translate(32, 0)"><use href="#bg" fill="#222"/><use href="#main" stroke="#f12"/></a>
	<view id="_" viewBox="70 6 20 20"/>
	<a href="#_" transform="translate(64, 0)"><use href="#main" stroke="#f12"/></a>

	<view id="-"  viewBox="6 38 20 20"/>
	<a href="#-"  transform="translate( 0,32)"><use href="#bg" fill="#fff"/><use href="#main" stroke="#222"/></a>
	<view id="-!" viewBox="38 38 20 20"/>
	<a href="#-!" transform="translate(32,32)"><use href="#bg" fill="#222"/><use href="#main" stroke="#fff"/></a>
	<view id="-_" viewBox="6 70 20 20"/>
	<a href="#-_" transform="translate(0,64)"><use href="#main" stroke="#222"/></a>
	<view id="-!_" viewBox="38 70 20 20"/>
	<a href="#-!_" transform="translate(32,64)"><use href="#main" stroke="#fff"/></a>
	
	<view id="$" viewBox="0 0 96 96"/>
</svg>
